<?xml version="1.0" standalone="no"?>
<!DOCTYPE svg PUBLIC "-//W3C//DTD SVG 20010904//EN"
 "http://www.w3.org/TR/2001/REC-SVG-20010904/DTD/svg10.dtd">
<svg version="1.0" xmlns="http://www.w3.org/2000/svg"
 width="750.000000pt" height="1000.000000pt" viewBox="0 0 750.000000 1000.000000"
 preserveAspectRatio="xMidYMid meet">

<g transform="translate(0.000000,1000.000000) scale(0.100000,-0.100000)"
fill="#000000" stroke="none">
<path d="M4437 9494 c-19 -19 -40 -68 -72 -173 -102 -323 -164 -503 -360
-1033 -38 -102 -51 -128 -66 -128 -16 0 -19 8 -19 53 -1 90 -51 168 -132 201
-26 11 -70 16 -141 16 l-103 0 -13 38 c-7 20 -38 91 -68 157 -138 300 -351
615 -468 693 -58 38 -114 43 -143 12 -10 -11 -57 -136 -105 -278 -94 -284
-221 -641 -388 -1096 -91 -246 -118 -307 -151 -350 -47 -59 -90 -147 -108
-226 -21 -84 -15 -193 23 -460 56 -391 74 -532 117 -925 68 -632 112 -1171
140 -1720 15 -292 13 -370 -20 -609 -17 -122 -39 -285 -50 -364 -11 -79 -20
-144 -20 -147 0 -17 -245 -128 -392 -176 -205 -67 -282 -79 -578 -89 -275 -9
-337 -17 -420 -60 -77 -39 -120 -107 -120 -187 0 -26 -5 -45 -12 -47 -7 -2
-42 -9 -77 -15 -121 -23 -228 -98 -264 -183 -14 -33 -15 -33 -183 -71 -241
-55 -244 -56 -244 -84 0 -12 2 -23 4 -23 2 0 88 20 190 45 103 25 194 45 202
45 7 0 14 -9 14 -20 0 -30 34 -91 67 -121 15 -15 51 -38 80 -53 l51 -25 -1
-58 c-1 -77 19 -115 80 -144 40 -20 63 -24 145 -24 l98 0 25 -37 c31 -45 93
-89 160 -114 61 -22 223 -25 305 -5 250 59 542 209 881 451 l108 78 16 -53
c48 -167 238 -107 338 107 18 37 37 66 42 63 104 -44 137 -55 172 -55 60 0 90
17 114 67 26 53 21 108 -16 178 l-24 45 40 0 c36 0 50 -8 113 -61 77 -67 204
-188 275 -262 l44 -46 -50 -78 c-283 -437 -595 -938 -642 -1031 -29 -57 -26
-89 13 -148 153 -228 521 -439 801 -460 74 -6 87 -4 118 15 80 49 128 160 135
312 4 94 1 117 -23 202 l-27 95 46 78 c27 46 47 72 50 63 3 -8 15 -86 26 -174
36 -274 47 -326 70 -349 19 -19 31 -21 168 -20 354 2 854 121 917 218 22 33
22 137 1 200 -58 172 -175 306 -311 358 -53 20 -55 22 -55 57 0 43 -22 179
-44 276 -25 108 -63 219 -117 346 l-49 116 114 189 114 189 114 16 c63 9 151
24 196 33 87 18 112 17 502 -14 571 -46 1325 -167 1812 -291 96 -24 98 -24 98
4 0 22 -10 26 -137 56 -565 135 -1232 238 -1868 286 -115 9 -211 18 -213 19
-2 2 17 15 40 29 100 58 197 179 238 297 30 87 55 400 86 1058 l7 142 51 -7
c28 -4 157 -7 286 -7 499 1 617 60 780 389 52 106 141 352 170 473 9 34 15 42
33 42 32 0 158 63 185 92 75 82 16 238 -90 238 -23 0 -23 2 -20 73 3 83 -8
111 -58 145 -45 30 -125 27 -170 -7 -28 -20 -31 -21 -36 -4 -48 152 -152 200
-259 119 -29 -23 -75 -111 -75 -146 0 -6 -24 -10 -54 -10 -64 0 -99 -23 -127
-84 -32 -70 -20 -134 34 -193 l20 -22 -88 -242 c-49 -132 -94 -243 -101 -246
-6 -2 -90 7 -185 21 -96 13 -198 28 -226 31 l-53 7 0 188 0 187 66 39 c91 53
197 167 241 259 66 140 119 475 129 828 4 135 12 214 24 267 24 98 43 272 35
321 -10 58 -55 114 -110 134 -39 15 -65 17 -168 11 -111 -6 -298 -29 -338 -41
-13 -4 -18 3 -24 32 -18 101 -88 370 -120 463 -46 132 -77 193 -128 254 l-40
48 21 44 c48 98 39 165 -38 269 -27 37 -55 85 -60 106 -6 21 -39 114 -74 206
-169 450 -384 835 -511 913 -47 29 -106 27 -138 -6z m95 -24 c19 0 104 -96
160 -180 66 -99 170 -295 240 -453 50 -112 168 -414 168 -429 0 -5 -24 8 -52
28 -52 35 -54 38 -90 146 -64 192 -184 415 -271 506 -60 62 -87 55 -100 -28
-7 -43 -74 -406 -88 -476 -8 -41 -16 -53 -42 -69 -62 -36 -95 -89 -104 -165
-7 -56 15 -126 47 -155 11 -10 20 -21 20 -25 0 -3 -91 -5 -202 -3 -112 1 -202
6 -201 10 1 5 29 82 63 173 142 379 264 733 344 1000 25 86 59 135 84 125 8
-3 18 -5 24 -5z m-1554 -201 c128 -94 395 -521 502 -801 l19 -50 -34 -14 c-19
-8 -38 -14 -42 -14 -4 0 -21 26 -37 58 -16 31 -58 104 -94 162 -127 203 -229
320 -282 320 -35 0 -40 -9 -65 -120 -14 -62 -135 -496 -228 -815 -26 -88 -23
-85 -150 -140 -32 -14 -96 -48 -144 -75 -47 -28 -88 -48 -90 -46 -2 2 42 127
97 277 56 151 129 351 162 444 32 94 81 231 108 305 26 74 71 207 100 295 83
257 78 245 109 245 15 0 46 -14 69 -31z m1797 -353 c29 -50 71 -131 93 -181
43 -97 89 -232 81 -239 -2 -2 -38 7 -79 22 -63 21 -96 26 -210 29 -133 3 -135
3 -132 26 3 21 29 163 72 397 11 58 23 112 26 120 9 23 86 -67 149 -174z
m-1729 -33 c46 -29 161 -187 266 -363 68 -113 82 -144 70 -148 -6 -2 -39 -22
-74 -44 -80 -52 -170 -145 -228 -236 -25 -39 -52 -72 -60 -72 -8 0 -75 -21
-149 -45 -74 -25 -136 -43 -139 -41 -2 3 5 33 16 68 34 103 178 615 212 749
43 172 38 164 86 132z m1778 -403 c109 -28 208 -83 287 -160 85 -83 129 -152
129 -202 0 -95 -81 -178 -172 -178 -55 0 -95 17 -153 67 -53 46 -181 107 -280
133 -147 40 -155 43 -190 81 -60 66 -59 152 2 220 19 21 49 43 67 48 59 17
227 12 310 -9z m-1044 -115 c62 -32 108 -122 94 -182 -20 -82 -63 -126 -149
-153 -122 -39 -249 -116 -335 -205 -68 -70 -96 -85 -158 -85 -79 0 -152 64
-168 147 -26 138 213 410 411 468 120 36 248 40 305 10z m696 -254 c115 -9
196 -24 221 -43 8 -7 5 -25 -13 -71 -35 -88 -72 -235 -80 -315 -3 -37 -19
-105 -34 -152 -39 -118 -60 -253 -60 -391 0 -65 -3 -120 -7 -122 -5 -3 -29 -8
-54 -12 l-46 -7 -8 39 c-12 67 -56 186 -96 264 -77 149 -190 257 -312 298 -50
17 -54 21 -102 107 -35 61 -75 114 -132 171 l-82 82 52 17 c77 24 133 59 157
98 19 32 26 35 73 39 108 7 407 6 523 -2z m312 -80 c21 -11 65 -40 99 -65 33
-25 77 -53 97 -61 48 -20 122 -18 173 5 l42 19 37 -42 c60 -71 108 -182 168
-392 26 -91 76 -308 76 -330 0 -9 -139 -51 -145 -43 -1 2 -14 44 -28 93 -96
338 -257 531 -454 543 -79 5 -136 -15 -187 -65 -43 -44 -44 -38 -16 92 22 99
79 265 92 265 5 0 26 -9 46 -19z m-1773 -124 c6 -124 102 -217 225 -217 67 0
111 24 190 105 36 36 95 84 133 106 l67 41 38 -28 c61 -46 137 -132 181 -206
23 -37 41 -73 41 -78 0 -6 -28 -10 -63 -10 -252 0 -475 -200 -573 -515 -27
-85 -28 -100 -28 -275 0 -215 13 -283 88 -435 78 -159 178 -271 298 -335 32
-17 58 -34 58 -37 0 -4 -16 -36 -36 -72 -66 -120 -172 -235 -308 -332 -77 -55
-265 -146 -384 -185 -132 -44 -365 -92 -493 -100 l-95 -7 -18 199 c-35 400
-87 843 -162 1391 l-47 342 16 82 c30 154 113 277 241 357 70 45 240 132 319
164 91 36 301 107 306 103 2 -3 5 -29 6 -58z m1928 -221 c71 -31 150 -112 207
-211 40 -72 130 -309 130 -346 0 -12 -27 -19 -139 -33 -77 -10 -144 -15 -150
-11 -6 3 -11 19 -11 34 0 52 -30 130 -64 166 -40 42 -89 48 -125 14 -36 -34
-70 -117 -77 -191 -7 -74 0 -69 -107 -83 -38 -5 -48 -3 -53 10 -11 27 15 305
36 393 33 137 99 243 170 271 46 18 126 12 183 -13z m-962 -136 c248 -94 423
-488 407 -915 -5 -112 -10 -143 -37 -225 -38 -111 -73 -171 -140 -233 -60 -56
-131 -93 -229 -118 -91 -23 -149 -24 -227 -4 -362 95 -579 588 -454 1035 51
184 187 363 333 437 107 54 243 63 347 23z m2073 -408 c16 -9 38 -34 49 -56
19 -36 19 -45 9 -155 -21 -207 -81 -388 -157 -466 -24 -24 -56 -47 -70 -51
-83 -21 -245 93 -449 314 -129 141 -146 167 -146 219 0 76 31 112 118 138 126
38 525 90 592 78 14 -2 38 -12 54 -21z m-800 -117 c-18 -44 -18 -106 0 -149
26 -63 282 -334 391 -414 179 -132 284 -129 381 10 l36 53 -7 -135 c-15 -315
-64 -596 -125 -726 -69 -145 -216 -261 -370 -293 -53 -11 -896 -61 -1064 -63
-52 0 -94 5 -117 14 -75 32 -149 122 -149 182 0 22 6 26 53 35 28 6 61 12 72
14 12 1 21 11 23 25 4 26 -17 28 -100 11 -111 -24 -217 -98 -234 -164 -10 -39
13 -57 34 -27 31 44 84 102 93 102 5 0 12 -12 15 -27 20 -84 99 -169 181 -197
60 -21 117 -20 559 4 202 11 369 19 371 17 5 -5 -77 -73 -137 -114 -111 -75
-272 -139 -422 -168 -109 -21 -318 -20 -423 1 -277 56 -448 210 -448 404 0 69
21 116 85 185 89 97 176 155 473 312 169 90 311 178 358 222 40 36 79 96 106
161 80 190 167 423 242 647 36 108 36 109 106 112 l32 1 -15 -35z m-174 -158
c-127 -379 -226 -615 -285 -684 -49 -58 -163 -131 -400 -258 -327 -175 -467
-281 -525 -395 -36 -70 -32 -171 9 -255 69 -140 238 -246 455 -284 86 -16 311
-13 400 3 151 29 293 83 415 159 54 33 27 3 -31 -36 -73 -48 -218 -119 -308
-152 -456 -164 -990 -2 -1066 324 -18 74 -17 144 1 216 47 177 177 298 540
500 189 105 268 157 323 213 55 55 117 175 162 312 34 104 94 338 105 410 12
73 13 73 137 91 62 8 116 14 120 12 3 -2 -20 -81 -52 -176z m-214 126 c-2 -10
-10 -45 -16 -78 -56 -289 -159 -572 -244 -672 -39 -44 -153 -123 -281 -193
-256 -139 -369 -215 -459 -305 -76 -76 -130 -177 -148 -273 -15 -82 1 -205 37
-278 58 -118 230 -234 425 -286 112 -30 374 -33 486 -6 235 57 431 159 629
327 l89 76 86 7 c47 3 100 9 118 13 l32 8 0 -294 c0 -629 -60 -1762 -100
-1891 -26 -86 -118 -234 -134 -217 -2 2 2 51 9 109 36 271 43 866 14 1029 -36
194 -186 366 -374 429 -138 47 -233 57 -535 57 -295 0 -428 -12 -640 -55 -188
-39 -331 -145 -415 -311 -54 -105 -56 -125 -105 -1154 -6 -126 -13 -267 -16
-312 l-6 -83 -163 0 c-161 0 -164 0 -182 24 -21 26 -34 -107 137 1451 27 253
50 466 50 473 0 16 -39 16 -45 0 -2 -7 -21 -161 -40 -343 -70 -646 -114 -1037
-118 -1041 -8 -8 -204 -34 -257 -34 -128 0 -271 43 -321 96 -19 20 -21 31 -16
71 4 26 22 163 42 303 19 140 49 361 66 490 17 129 41 307 53 395 13 88 21
166 18 173 -2 6 -12 12 -22 12 -21 0 -20 5 -56 -265 -14 -110 -27 -201 -29
-203 -2 -2 -6 50 -9 115 -17 298 -38 601 -51 737 -8 82 -15 161 -15 175 l0 27
118 11 c316 31 628 134 855 282 129 84 265 231 335 361 27 51 32 55 63 53 271
-15 399 23 529 156 144 148 205 387 170 677 -7 58 -10 108 -7 110 5 6 380 61
425 63 18 1 22 -3 18 -16z m1819 -1176 c36 -36 65 -116 65 -179 0 -21 3 -38 8
-38 4 0 18 17 31 38 32 52 78 82 127 82 88 0 113 -91 61 -220 -15 -35 -25 -65
-24 -67 2 -1 20 9 40 23 27 18 48 24 75 22 33 -3 40 -8 62 -50 l25 -47 -19
-36 c-21 -38 -89 -78 -172 -99 -26 -6 -51 -18 -55 -26 -4 -8 -22 -66 -39 -128
-17 -62 -40 -133 -50 -157 -18 -42 -20 -43 -89 -59 -38 -9 -90 -16 -114 -16
-59 0 -160 32 -217 68 -58 36 -140 119 -140 140 0 8 28 92 62 185 l61 170 -27
19 c-57 43 -71 112 -33 169 19 28 30 35 64 37 24 2 55 -4 71 -12 16 -8 32 -12
36 -9 3 4 6 27 6 53 0 63 35 130 80 152 49 25 67 23 105 -15z m-327 -896 c127
-86 276 -109 415 -65 25 8 19 -12 -48 -151 -113 -235 -187 -297 -405 -341
-149 -30 -617 -30 -653 -1 -11 10 -12 57 -5 281 4 148 10 272 13 274 2 2 107
-10 233 -27 125 -17 238 -31 249 -31 16 0 25 14 43 63 12 34 27 73 32 86 l9
25 30 -38 c17 -20 56 -54 87 -75z m-1541 -406 c140 -20 187 -32 271 -72 134
-63 248 -201 287 -349 22 -82 31 -529 16 -779 -10 -165 -29 -342 -46 -411 -6
-27 -84 -78 -160 -104 -196 -67 -819 -126 -1652 -156 l-183 -6 0 29 c0 16 4
112 10 214 5 101 14 279 20 394 31 614 41 764 51 800 54 189 210 343 394 388
62 15 225 41 355 56 128 14 524 12 637 -4z m-2419 -1300 c68 -47 164 -69 292
-69 63 0 148 6 188 13 40 7 75 11 77 10 2 -2 -3 -58 -11 -124 -7 -66 -18 -167
-24 -225 -6 -58 -13 -117 -16 -131 -4 -22 3 -35 47 -75 96 -90 129 -167 98
-227 -17 -31 -28 -37 -75 -37 -29 0 -67 12 -122 40 -91 46 -92 46 -92 24 0
-31 -68 -159 -109 -205 -70 -80 -142 -92 -173 -29 -20 39 -25 204 -8 275 11
50 6 55 -22 19 -51 -68 -132 -134 -184 -151 -47 -14 -57 -15 -91 -2 -28 11
-40 22 -47 47 -16 57 27 123 126 194 18 12 20 19 11 28 -19 20 -61 3 -113 -46
l-49 -46 -21 34 c-11 18 -20 50 -20 71 0 32 7 45 48 85 26 26 78 63 115 82 43
22 69 42 72 55 2 11 13 92 25 180 27 209 31 235 36 235 3 0 22 -11 42 -25z
m-122 -172 c-3 -21 -11 -75 -17 -121 l-11 -83 -57 -29 c-110 -56 -181 -139
-181 -212 0 -38 29 -107 54 -127 13 -11 15 -23 10 -56 -18 -124 111 -190 242
-123 27 15 56 34 63 42 19 23 31 20 31 -9 0 -19 -17 -37 -77 -82 -117 -86
-326 -223 -342 -223 -7 0 -45 17 -85 37 -85 45 -209 164 -249 240 -35 66 -67
191 -67 263 0 96 39 280 64 298 6 5 62 21 125 36 63 16 148 41 190 56 95 35
263 108 276 121 22 22 37 9 31 -28z m-687 -279 c-28 -117 -31 -274 -5 -358 50
-168 156 -292 328 -386 l48 -26 -83 -46 c-182 -102 -320 -158 -456 -189 -227
-50 -401 8 -453 152 -6 14 -14 15 -60 7 -29 -6 -80 -8 -113 -5 -133 10 -167
65 -123 201 2 4 -22 17 -52 29 -65 24 -125 68 -145 108 -41 79 3 177 108 243
37 23 169 56 225 56 42 0 44 1 36 23 -4 12 -8 48 -8 79 -1 50 3 61 29 88 72
76 174 100 432 101 103 1 215 4 248 8 33 4 61 6 63 5 1 0 -7 -41 -19 -90z
m3121 -100 c0 -11 -183 -314 -189 -314 -3 1 -30 39 -59 86 -30 46 -74 109 -99
139 -25 31 -44 57 -42 59 2 2 83 10 179 18 96 8 183 16 193 16 9 1 17 -1 17
-4z m-429 -71 c122 -129 255 -359 328 -566 43 -123 44 -121 -29 -114 -79 9
-234 -8 -335 -35 -88 -23 -224 -82 -296 -128 -57 -37 -65 -37 -74 -2 -15 65
-120 254 -194 353 -109 145 -281 326 -418 441 l-52 43 227 8 c125 5 340 14
477 21 138 7 268 14 290 15 35 1 46 -4 76 -36z m-670 -481 c103 -127 189 -284
239 -435 12 -38 19 -71 15 -75 -3 -4 -49 15 -102 42 -90 46 -236 148 -332 234
l-44 38 79 127 c44 70 84 127 89 127 6 0 31 -26 56 -58z m24 -428 c89 -57 161
-95 216 -113 27 -9 38 -19 42 -39 4 -15 13 -60 22 -101 l16 -73 -70 -113 -70
-113 25 -70 c13 -38 28 -101 34 -140 18 -132 -30 -302 -101 -353 -29 -21 -142
-28 -154 -9 -3 5 6 28 20 51 32 50 57 162 53 238 -3 49 -6 56 -25 59 -22 3
-23 0 -23 -65 0 -37 -7 -92 -14 -121 -16 -59 -58 -137 -79 -145 -24 -9 -277
89 -277 108 0 2 13 25 30 51 35 56 56 116 70 206 11 72 6 101 -18 96 -11 -2
-19 -26 -29 -83 -7 -44 -18 -94 -23 -111 -16 -48 -68 -124 -85 -124 -20 0
-121 74 -194 142 -76 72 -141 155 -141 180 0 11 17 50 37 86 40 72 397 649
445 719 l29 43 92 -77 c51 -42 128 -100 172 -129z m969 200 c37 -5 50 -12 56
-29 8 -21 41 -201 53 -286 l5 -37 -81 -4 c-133 -8 -231 -48 -197 -82 7 -7 26
-4 62 10 40 14 78 19 158 19 94 0 111 -3 161 -28 137 -68 260 -248 271 -397 2
-27 0 -34 -12 -31 -54 14 -102 20 -152 21 l-57 0 -6 48 c-4 26 -13 68 -21 94
-20 62 -89 158 -115 158 -29 0 -23 -22 21 -87 39 -56 70 -141 70 -194 0 -25
-3 -26 -152 -53 -84 -16 -155 -29 -158 -30 -3 0 -8 24 -11 54 -14 117 -102
255 -125 196 -3 -8 6 -32 20 -53 28 -40 66 -149 66 -187 0 -20 -16 -28 -147
-71 -82 -26 -170 -58 -197 -72 -27 -14 -52 -21 -56 -16 -4 4 -20 102 -35 218
-34 269 -86 536 -120 617 -9 22 50 65 161 119 169 82 386 123 538 103z m429
-905 c20 -5 37 -14 37 -19 0 -14 -99 -57 -195 -85 -202 -58 -541 -109 -695
-103 l-85 3 70 33 c128 61 447 147 635 171 94 12 190 12 233 0z"/>
<path d="M3783 7079 c-19 -12 -43 -43 -59 -75 -24 -50 -26 -62 -22 -152 3 -82
8 -107 32 -156 72 -148 181 -187 266 -97 61 64 77 193 40 313 -47 151 -163
227 -257 167z"/>
<path d="M5675 7116 c-70 -17 -134 -55 -142 -84 -14 -56 67 -92 206 -92 144 0
274 45 288 98 8 31 -29 66 -85 81 -49 14 -204 12 -267 -3z m277 -22 c73 -24
74 -60 5 -93 -66 -32 -141 -44 -248 -39 -80 3 -104 8 -126 24 -38 28 -39 48
-6 70 76 50 280 71 375 38z"/>
<path d="M6685 5510 c-3 -5 -1 -29 6 -52 15 -56 5 -119 -28 -179 -27 -50 -25
-71 5 -53 27 17 60 84 67 136 11 79 -26 187 -50 148z"/>
</g>
</svg>
